<svg xmlns="http://www.w3.org/2000/svg" width="3440" height="1440">
  <rect width="3440" height="1440" fill="#8a7090"/>
  <g transform="matrix(0.1383 0 0 -0.1383 181.27 1424.49)">
    <path d="M2770 10312V-417h-226v10729z" style="fill:#744b7d;fill-opacity:1;fill-rule:nonzero;stroke:none" />
    <path d="M2982 10312V-417h-227v10729z" style="fill:#4c5c8a;fill-opacity:1;fill-rule:nonzero;stroke:none" />
    <path d="M3193 10312V-417h-226v10729z" style="fill:#6e8050;fill-opacity:1;fill-rule:nonzero;stroke:none" />
    <path d="M3404 10312V-417h-226v10729z" style="fill:#d8a93f;fill-opacity:1;fill-rule:nonzero;stroke:none" />
    <path d="M3616 10312V-417h-227v10729z" style="fill:#d3772d;fill-opacity:1;fill-rule:nonzero;stroke:none" />
    <path d="M3827 10312V-417h-226v10729z" style="fill:#c33131;fill-opacity:1;fill-rule:nonzero;stroke:none" />
    <path d="M4039 10312V-417h-227v10729z" style="fill:#ebe1e6;fill-opacity:1;fill-rule:nonzero;stroke:none" />
    <path d="M4250 10312V-417h-226v10729z" style="fill:#d67f94;fill-opacity:1;fill-rule:nonzero;stroke:none" />
    <path d="M4461 10312V-417h-226v10729z" style="fill:#75aad3;fill-opacity:1;fill-rule:nonzero;stroke:none" />
    <path d="M4673 10312V-417h-227v10729z" style="fill:#7e5340;fill-opacity:1;fill-rule:nonzero;stroke:none" />
    <path d="M4869 10312V-417h-211v10729z" style="fill:#2b2227;fill-opacity:1;fill-rule:nonzero;stroke:none" />
    <path d="M23586 6257H4163C2083 6257 397 4571 397 2491V-417h2361V2491C2758 2690 2798 2880 2871 3052C2944 3224 3050 3380 3180 3510C3310 3640 3466 3746 3638 3819C3810 3892 4000 3932 4199 3932H7084H23586z" style="fill:#2b2227;fill-opacity:1;fill-rule:nonzero;stroke:none" />
    <path d="M23586 6046H4166C2203 6046 611 4454 611 2491V-417h2147V2491C2758 2690 2798 2880 2871 3052C2944 3224 3050 3380 3180 3510C3310 3640 3466 3746 3638 3819C3810 3892 4000 3932 4199 3932H7084H23586z" style="fill:#7e5340;fill-opacity:1;fill-rule:nonzero;stroke:none" />
    <path d="M23586 5834H4169C2323 5834 826 4337 826 2491V-417h1932V2491C2758 2690 2798 2880 2871 3052C2944 3224 3050 3380 3180 3510C3310 3640 3466 3746 3638 3819C3810 3892 4000 3932 4199 3932H7084H23586z" style="fill:#75aad3;fill-opacity:1;fill-rule:nonzero;stroke:none" />
    <path d="M23586 5623H4173C2443 5623 1041 4221 1041 2491V-417h1717V2491C2758 2690 2798 2880 2871 3052C2944 3224 3050 3380 3180 3510C3310 3640 3466 3746 3638 3819C3810 3892 4000 3932 4199 3932H7084H23586z" style="fill:#d67f94;fill-opacity:1;fill-rule:nonzero;stroke:none" />
    <path d="M23586 5412H4176C2563 5412 1255 4104 1255 2491V-417h1503V2491C2758 2690 2798 2880 2871 3052C2944 3224 3050 3380 3180 3510C3310 3640 3466 3746 3638 3819C3810 3892 4000 3932 4199 3932H7084H23586z" style="fill:#ebe1e6;fill-opacity:1;fill-rule:nonzero;stroke:none" />
    <path d="M23586 5200H4179C2683 5200 1470 3987 1470 2491V-417h1288V2491C2758 2690 2798 2880 2871 3052C2944 3224 3050 3380 3180 3510C3310 3640 3466 3746 3638 3819C3810 3892 4000 3932 4199 3932H7084H23586z" style="fill:#c33131;fill-opacity:1;fill-rule:nonzero;stroke:none" />
    <path d="M23586 4989H4183C2803 4989 1685 3871 1685 2491V-417h1073V2491C2758 2690 2798 2880 2871 3052C2944 3224 3050 3380 3180 3510C3310 3640 3466 3746 3638 3819C3810 3892 4000 3932 4199 3932H7084H23586z" style="fill:#d3772d;fill-opacity:1;fill-rule:nonzero;stroke:none" />
    <path d="M23586 4777H4186C2923 4777 1900 3754 1900 2491V-417h858V2491C2758 2690 2798 2880 2871 3052C2944 3224 3050 3380 3180 3510C3310 3640 3466 3746 3638 3819C3810 3892 4000 3932 4199 3932H7084H23586z" style="fill:#d8a93f;fill-opacity:1;fill-rule:nonzero;stroke:none" />
    <path d="M23586 4566H4189C3043 4566 2114 3637 2114 2491V-417h644V2491C2758 2690 2798 2880 2871 3052C2944 3224 3050 3380 3180 3510C3310 3640 3466 3746 3638 3819C3810 3892 4000 3932 4199 3932H7084H23586z" style="fill:#6e8050;fill-opacity:1;fill-rule:nonzero;stroke:none" />
    <path d="M23586 4355H4193C3164 4355 2329 3520 2329 2491V-417h429V2491C2758 2690 2798 2880 2871 3052C2944 3224 3050 3380 3180 3510C3310 3640 3466 3746 3638 3819C3810 3892 4000 3932 4199 3932H7084H23586z" style="fill:#4c5c8a;fill-opacity:1;fill-rule:nonzero;stroke:none" />
    <path d="M23586 4143H4196C3284 4143 2544 3403 2544 2491V-417h214V2491C2758 2690 2798 2880 2871 3052C2944 3224 3050 3380 3180 3510C3310 3640 3466 3746 3638 3819C3810 3892 4000 3932 4199 3932H7084H23586z" style="fill:#744b7d;fill-opacity:1;fill-rule:nonzero;stroke:none" />
    <clipPath id="vc"><rect x="2544" y="-417" width="2325" height="10729"/></clipPath>
    <path d="M2758 -417V2491C2758 2690 2798 2880 2871 3052C2944 3224 3050 3380 3180 3510C3310 3640 3466 3746 3638 3819C3810 3892 4000 3932 4199 3932H7084" style="fill:none;stroke:#744b7d;stroke-width:8" clip-path="url(#vc)" />
  </g>
</svg>
